<svg width="711" height="144" viewBox="0 0 711 144" fill="none" xmlns="http://www.w3.org/2000/svg">
<path d="M1.76109 77.9711L36.0929 137.417C38.2475 141.149 42.2698 143.591 46.7226 143.591L115.386 143.591C117.875 143.588 117.687 143.59 123.494 143.588C123.422 143.478 121.981 141.915 123.494 143.588L101.381 108.695C98.6197 108.695 97.1431 108.695 95.4191 108.695L66.9773 108.695C62.5245 108.695 58.5007 106.397 56.3476 102.521L42.1268 77.9711C39.9723 74.2377 39.9723 69.4996 42.1268 65.6225L56.3476 41.069C58.5022 37.3356 62.6683 34.895 66.9773 34.895L95.2761 34.895C97.1717 34.895 98.2248 34.895 100.331 34.895L117.685 6.17764C120.338 2.10648 120.338 2.10648 121.391 0.000457764C119.285 0.000457764 118.232 0.000457764 115.243 3.05176e-05L46.4389 3.05176e-05C41.986 3.05176e-05 37.9622 2.29755 35.8092 6.17395L1.47582 65.6232C-0.537193 69.4996 -0.537186 74.0947 1.76109 77.9711Z" fill="white"/>
<path d="M110.871 77.965L127.965 107.54L149.819 143.207L166.32 115.011C168.187 111.818 168.187 107.866 166.32 104.672L150.806 77.822C149.657 75.9557 149.226 73.8019 149.226 71.6481C149.238 69.4916 149.781 67.3713 150.806 65.4741L166.32 38.769C168.187 35.5758 168.187 31.6238 166.32 28.4305L148.766 2.10283L127.821 35.7469L110.728 65.326C108.573 69.4935 108.573 74.0886 110.871 77.965Z" fill="white"/>
<path d="M292.938 90.1312C293.642 90.1312 294.266 90.4032 294.81 90.9472L299.898 96.4672C297.082 99.9552 293.61 102.627 289.482 104.483C285.386 106.339 280.458 107.267 274.698 107.267C269.546 107.267 264.906 106.387 260.778 104.627C256.682 102.867 253.178 100.419 250.266 97.2832C247.354 94.1472 245.114 90.4032 243.546 86.0512C242.01 81.6992 241.242 76.9472 241.242 71.7952C241.242 66.5792 242.074 61.8112 243.738 57.4912C245.402 53.1392 247.738 49.3952 250.746 46.2592C253.786 43.1232 257.402 40.6912 261.594 38.9632C265.786 37.2032 270.426 36.3232 275.514 36.3232C280.57 36.3232 285.05 37.1552 288.954 38.8192C292.89 40.4832 296.234 42.6592 298.986 45.3472L294.666 51.3472C294.41 51.7312 294.074 52.0672 293.658 52.3552C293.274 52.6432 292.73 52.7872 292.026 52.7872C291.546 52.7872 291.05 52.6592 290.538 52.4032C290.026 52.1152 289.466 51.7792 288.858 51.3952C288.25 50.9792 287.546 50.5312 286.746 50.0512C285.946 49.5712 285.018 49.1392 283.962 48.7552C282.906 48.3392 281.674 48.0032 280.266 47.7472C278.89 47.4592 277.29 47.3152 275.466 47.3152C272.362 47.3152 269.514 47.8752 266.922 48.9952C264.362 50.0832 262.154 51.6832 260.298 53.7952C258.442 55.8752 257.002 58.4352 255.978 61.4752C254.954 64.4832 254.442 67.9232 254.442 71.7952C254.442 75.6992 254.986 79.1712 256.074 82.2112C257.194 85.2512 258.698 87.8112 260.586 89.8912C262.474 91.9712 264.698 93.5712 267.258 94.6912C269.818 95.7792 272.57 96.3232 275.514 96.3232C277.274 96.3232 278.858 96.2272 280.266 96.0352C281.706 95.8432 283.018 95.5392 284.202 95.1232C285.418 94.7072 286.554 94.1792 287.61 93.5392C288.698 92.8672 289.77 92.0512 290.826 91.0912C291.146 90.8032 291.482 90.5792 291.834 90.4192C292.186 90.2272 292.554 90.1312 292.938 90.1312Z" fill="white"/>
<path d="M383.035 71.7952C383.035 76.8832 382.187 81.6032 380.491 85.9552C378.827 90.2752 376.459 94.0192 373.387 97.1872C370.315 100.355 366.619 102.835 362.299 104.627C357.979 106.387 353.179 107.267 347.899 107.267C342.651 107.267 337.867 106.387 333.547 104.627C329.227 102.835 325.515 100.355 322.411 97.1872C319.339 94.0192 316.955 90.2752 315.259 85.9552C313.563 81.6032 312.715 76.8832 312.715 71.7952C312.715 66.7072 313.563 62.0032 315.259 57.6832C316.955 53.3312 319.339 49.5712 322.411 46.4032C325.515 43.2352 329.227 40.7712 333.547 39.0112C337.867 37.2192 342.651 36.3232 347.899 36.3232C351.419 36.3232 354.731 36.7392 357.835 37.5712C360.939 38.3712 363.787 39.5232 366.379 41.0272C368.971 42.4992 371.291 44.3072 373.339 46.4512C375.419 48.5632 377.179 50.9312 378.619 53.5552C380.059 56.1792 381.147 59.0272 381.883 62.0992C382.651 65.1712 383.035 68.4032 383.035 71.7952ZM369.835 71.7952C369.835 67.9872 369.323 64.5792 368.299 61.5712C367.275 58.5312 365.819 55.9552 363.931 53.8432C362.043 51.7312 359.739 50.1152 357.019 48.9952C354.331 47.8752 351.291 47.3152 347.899 47.3152C344.507 47.3152 341.451 47.8752 338.731 48.9952C336.043 50.1152 333.739 51.7312 331.819 53.8432C329.931 55.9552 328.475 58.5312 327.451 61.5712C326.427 64.5792 325.915 67.9872 325.915 71.7952C325.915 75.6032 326.427 79.0272 327.451 82.0672C328.475 85.0752 329.931 87.6352 331.819 89.7472C333.739 91.8272 336.043 93.4272 338.731 94.5472C341.451 95.6672 344.507 96.2272 347.899 96.2272C351.291 96.2272 354.331 95.6672 357.019 94.5472C359.739 93.4272 362.043 91.8272 363.931 89.7472C365.819 87.6352 367.275 85.0752 368.299 82.0672C369.323 79.0272 369.835 75.6032 369.835 71.7952Z" fill="white"/>
<path d="M462.486 37.0912V106.499H455.862C454.838 106.499 453.974 106.339 453.27 106.019C452.598 105.667 451.942 105.091 451.302 104.291L415.062 58.0192C415.254 60.1312 415.35 62.0832 415.35 63.8752V106.499H403.974V37.0912H410.742C411.286 37.0912 411.75 37.1232 412.134 37.1872C412.55 37.2192 412.902 37.3152 413.19 37.4752C413.51 37.6032 413.814 37.8112 414.102 38.0992C414.39 38.3552 414.71 38.7072 415.062 39.1552L451.446 85.6192C451.35 84.4992 451.27 83.3952 451.206 82.3072C451.142 81.2192 451.11 80.2112 451.11 79.2832V37.0912H462.486Z" fill="white"/>
<path d="M535.207 90.1312C535.911 90.1312 536.535 90.4032 537.079 90.9472L542.167 96.4672C539.351 99.9552 535.879 102.627 531.751 104.483C527.655 106.339 522.727 107.267 516.967 107.267C511.815 107.267 507.175 106.387 503.047 104.627C498.951 102.867 495.447 100.419 492.535 97.2832C489.623 94.1472 487.383 90.4032 485.815 86.0512C484.279 81.6992 483.511 76.9472 483.511 71.7952C483.511 66.5792 484.343 61.8112 486.007 57.4912C487.671 53.1392 490.007 49.3952 493.015 46.2592C496.055 43.1232 499.671 40.6912 503.863 38.9632C508.055 37.2032 512.695 36.3232 517.783 36.3232C522.839 36.3232 527.319 37.1552 531.223 38.8192C535.159 40.4832 538.503 42.6592 541.255 45.3472L536.935 51.3472C536.679 51.7312 536.343 52.0672 535.927 52.3552C535.543 52.6432 534.999 52.7872 534.295 52.7872C533.815 52.7872 533.319 52.6592 532.807 52.4032C532.295 52.1152 531.735 51.7792 531.127 51.3952C530.519 50.9792 529.815 50.5312 529.015 50.0512C528.215 49.5712 527.287 49.1392 526.231 48.7552C525.175 48.3392 523.943 48.0032 522.535 47.7472C521.159 47.4592 519.559 47.3152 517.735 47.3152C514.631 47.3152 511.783 47.8752 509.191 48.9952C506.631 50.0832 504.423 51.6832 502.567 53.7952C500.711 55.8752 499.271 58.4352 498.247 61.4752C497.223 64.4832 496.711 67.9232 496.711 71.7952C496.711 75.6992 497.255 79.1712 498.343 82.2112C499.463 85.2512 500.967 87.8112 502.855 89.8912C504.743 91.9712 506.967 93.5712 509.527 94.6912C512.087 95.7792 514.839 96.3232 517.783 96.3232C519.543 96.3232 521.127 96.2272 522.535 96.0352C523.975 95.8432 525.287 95.5392 526.471 95.1232C527.687 94.7072 528.823 94.1792 529.879 93.5392C530.967 92.8672 532.039 92.0512 533.095 91.0912C533.415 90.8032 533.751 90.5792 534.103 90.4192C534.455 90.2272 534.823 90.1312 535.207 90.1312Z" fill="white"/>
<path d="M678.598 47.6992H657.67V106.499H644.758V47.6992H623.83V37.0912H678.598V47.6992Z" fill="white"/>
<path d="M710.24 106.499H697.28V37.0912H710.24V106.499Z" fill="white"/>
<path d="M551.985 106.612L580.017 37.2041H591.681L619.713 106.612H609.345C608.225 106.612 607.313 106.34 606.609 105.796C605.905 105.252 605.377 104.548 605.025 103.684L588.657 61.3481C588.113 59.9721 587.601 58.4521 587.121 56.7881C586.609 55.1561 586.129 53.4441 585.681 51.6521C585.297 53.4441 584.881 55.1561 584.433 56.7881C583.985 58.4521 583.489 59.9721 582.945 61.3481L566.673 103.684C566.417 104.42 565.921 105.092 565.185 105.7C564.417 106.308 563.489 106.612 562.401 106.612H551.985Z" fill="white"/>
</svg>
